<?xml version="1.0" standalone="no"?>
<!DOCTYPE svg PUBLIC "-//W3C//DTD SVG 20010904//EN"
 "http://www.w3.org/TR/2001/REC-SVG-20010904/DTD/svg10.dtd">
<svg version="1.0" xmlns="http://www.w3.org/2000/svg"
 width="180.000000pt" height="180.000000pt" viewBox="0 0 180.000000 180.000000"
 preserveAspectRatio="xMidYMid meet">
<metadata>
Created by potrace 1.14, written by Peter Selinger 2001-2017
</metadata>
<g transform="translate(0.000000,180.000000) scale(0.100000,-0.100000)"
fill="#000000" stroke="none">
<path d="M940 1787 c0 -1 4 -17 9 -35 9 -31 9 -32 -20 -32 -18 0 -28 4 -24 10
3 6 0 10 -9 10 -8 0 -16 -5 -18 -11 -2 -5 -53 -14 -113 -19 -78 -5 -132 -16
-183 -35 -121 -44 -197 -81 -235 -115 -37 -32 -78 -107 -75 -138 3 -34 -2 -53
-12 -47 -5 3 -21 -17 -35 -44 -20 -40 -25 -65 -25 -124 0 -68 3 -78 31 -113
l31 -39 -33 -7 c-60 -12 -80 -65 -56 -142 8 -28 21 -77 27 -108 6 -32 16 -58
22 -58 6 0 8 9 4 23 -12 41 -38 152 -43 185 -6 37 18 82 45 82 35 0 92 -21
101 -38 5 -9 11 -43 15 -75 3 -32 8 -62 11 -67 3 -4 0 -21 -5 -36 -12 -31 1
-52 19 -31 16 20 43 115 44 155 0 17 2 32 4 32 2 0 14 -12 27 -27 18 -21 22
-33 15 -57 -32 -130 -37 -176 -19 -176 6 0 10 15 10 33 0 28 6 58 25 145 4 17
12 22 35 22 16 0 32 -5 35 -10 4 -6 11 -8 16 -4 10 6 83 -15 76 -23 -3 -2 -27
-8 -54 -11 l-48 -8 33 -16 c17 -9 32 -12 32 -7 0 5 9 9 20 9 15 0 20 -7 20
-29 0 -25 5 -31 30 -36 16 -4 32 -11 35 -16 8 -12 72 -11 80 1 4 6 -1 22 -9
35 -20 30 -8 32 28 4 20 -16 25 -28 23 -55 -1 -19 -5 -34 -9 -34 -5 0 -8 -7
-8 -15 0 -20 -46 -64 -76 -71 -53 -13 -145 5 -210 41 -65 36 -93 46 -59 19 44
-35 134 -72 185 -79 80 -10 124 11 180 85 25 32 50 59 57 59 6 1 31 -8 56 -18
37 -16 45 -25 50 -53 4 -18 2 -51 -3 -73 -19 -81 -16 -89 48 -117 64 -28 132
-44 132 -30 0 5 -17 12 -37 15 -21 4 -58 17 -83 29 -44 23 -45 24 -42 68 2 25
9 58 17 74 8 16 15 35 15 43 0 16 106 18 130 3 11 -7 6 -8 -17 -4 -32 6 -93
-11 -93 -26 0 -4 15 -7 32 -6 18 0 33 -3 33 -9 1 -37 59 -50 70 -15 7 22 20
26 31 9 3 -6 0 -15 -7 -20 -10 -6 -2 -9 24 -9 45 0 47 10 5 46 -21 17 -26 25
-13 20 11 -4 33 -10 48 -13 24 -5 27 -9 22 -27 -4 -12 -7 -35 -6 -52 1 -41
-55 -104 -93 -104 -16 0 -25 -4 -21 -10 10 -17 37 -11 72 16 18 14 33 23 33
20 0 -2 -17 -35 -39 -73 -21 -37 -41 -78 -45 -90 -16 -50 -119 -127 -287 -212
l-164 -83 -100 10 c-108 12 -134 5 -89 -25 21 -13 47 -18 99 -18 62 0 77 4
137 38 87 48 92 48 84 -8 l-7 -45 143 0 c132 1 141 2 110 15 -30 13 -142 111
-142 124 0 3 21 17 48 31 60 31 145 111 187 175 34 51 85 159 85 179 0 6 10
30 22 54 27 50 58 56 85 16 19 -29 12 -47 -27 -73 -22 -15 -23 -15 -12 6 15
27 15 63 1 63 -5 0 -8 -4 -4 -9 11 -19 -37 -116 -73 -148 -20 -18 -32 -33 -26
-33 6 0 48 35 92 79 77 73 82 81 82 119 0 35 4 44 28 56 19 10 44 44 77 105
27 49 53 87 58 84 6 -4 7 -1 3 6 -5 7 -1 20 7 29 24 26 36 97 37 203 0 78 -3
101 -18 120 -10 13 -24 43 -30 66 -7 23 -19 49 -28 58 -8 8 -13 15 -9 15 4 0
0 7 -9 15 -8 9 -13 21 -10 28 2 8 -7 26 -20 40 -14 15 -31 38 -37 50 -30 55
-116 139 -167 162 -65 30 -122 42 -122 26 0 -18 -45 15 -60 44 -11 21 -18 24
-49 19 -29 -5 -40 -1 -55 15 -23 25 -36 27 -36 5 0 -23 -23 -12 -38 19 -7 15
-17 27 -23 27 -5 0 -9 -1 -9 -3z m-103 -606 c-2 -20 -18 -67 -35 -104 l-31
-68 -37 16 c-20 8 -54 15 -75 15 -22 0 -39 4 -39 9 0 18 91 102 125 117 20 8
45 25 57 39 27 31 42 22 35 -24z m-230 -45 c-2 -17 -8 -39 -12 -50 -7 -16 -6
-17 13 -7 31 16 28 -3 -4 -28 -15 -12 -40 -21 -55 -21 -16 0 -29 -4 -29 -10 0
-5 15 -10 33 -10 35 -1 159 -52 165 -69 2 -5 11 -7 20 -4 15 6 15 5 3 -10 -14
-18 -2 -24 15 -7 15 15 74 -10 74 -32 0 -12 8 -16 30 -16 17 1 33 5 36 10 3 4
14 8 25 8 26 0 25 -31 -2 -53 -11 -10 -19 -21 -16 -24 5 -4 116 17 167 32 16
5 44 -41 34 -57 -3 -4 -23 -18 -46 -29 -40 -20 -40 -20 -81 -1 -23 10 -55 22
-72 26 -16 4 -52 18 -80 31 -27 13 -79 36 -115 50 -36 15 -113 50 -172 78 -81
39 -108 56 -108 70 0 21 72 93 108 108 12 5 32 26 45 46 17 30 23 34 25 19 2
-10 2 -32 -1 -50z m253 -162 c0 -8 -5 -12 -10 -9 -6 4 -8 11 -5 16 9 14 15 11
15 -7z m-115 -152 c-3 -3 -11 0 -18 7 -9 10 -8 11 6 5 10 -3 15 -9 12 -12z
m603 -19 c2 -13 1 -23 -2 -23 -12 0 -56 24 -56 30 0 30 54 23 58 -7z m-607
-36 c-16 -16 -26 0 -10 19 9 11 15 12 17 4 2 -6 -1 -17 -7 -23z m495 -8 c32
-11 67 -23 77 -26 10 -3 17 -15 17 -29 0 -19 -5 -24 -27 -24 -15 0 -45 6 -68
14 -22 8 -71 23 -109 32 l-70 18 40 18 c50 23 68 22 140 -3z m204 -139 c0 -5
-2 -10 -4 -10 -3 0 -8 5 -11 10 -3 6 -1 10 4 10 6 0 11 -4 11 -10z"/>
<path d="M225 948 c-4 -20 0 -51 9 -77 9 -24 16 -54 16 -67 0 -14 6 -24 14
-24 10 0 13 -8 10 -27 -3 -15 -7 -30 -10 -35 -3 -4 0 -8 6 -8 15 0 18 12 25
113 6 86 6 87 -17 86 -19 -1 -19 -2 -4 -6 15 -4 17 -11 11 -41 -3 -21 -7 -43
-7 -49 -2 -20 -10 -7 -29 49 -11 31 -16 65 -13 81 5 25 9 28 31 22 16 -4 22
-2 18 5 -3 5 -17 10 -30 10 -19 0 -25 -7 -30 -32z"/>
<path d="M1600 809 c-7 -11 -10 -23 -7 -25 2 -2 9 7 15 21 14 30 7 33 -8 4z"/>
<path d="M1566 739 c-10 -17 -16 -33 -13 -36 3 -3 13 9 22 27 21 41 14 48 -9
9z"/>
<path d="M297 727 c-4 -10 -7 -27 -7 -37 0 -10 -6 -25 -12 -32 -7 -7 -14 -28
-15 -46 -1 -19 -14 -71 -28 -115 -22 -71 -32 -87 -69 -117 -23 -19 -57 -58
-75 -86 -17 -28 -45 -64 -61 -79 -29 -28 -30 -32 -30 -122 l0 -93 61 0 c53 0
60 2 55 18 -17 60 -27 139 -21 170 10 55 80 185 111 208 20 14 33 37 42 70 13
49 13 49 27 24 13 -23 14 -21 8 27 -4 33 0 76 12 121 17 70 18 130 2 89z"/>
<path d="M690 730 c8 -5 24 -10 34 -10 26 0 18 6 -19 14 -22 5 -26 4 -15 -4z"/>
<path d="M220 686 c0 -7 6 -19 14 -25 11 -9 12 -6 8 14 -5 26 -22 35 -22 11z"/>
<path d="M1163 589 c14 -8 22 -8 30 0 8 8 3 11 -18 11 -26 -1 -28 -2 -12 -11z"/>
<path d="M689 537 c-9 -7 -22 -23 -29 -36 -12 -23 -10 -27 16 -48 16 -13 36
-23 44 -22 10 0 11 2 2 6 -26 10 -33 41 -18 78 16 37 12 43 -15 22z"/>
<path d="M957 484 c-4 -4 -7 -30 -6 -58 0 -28 3 -45 6 -38 2 6 11 12 19 12 8
0 14 1 14 3 -1 21 -28 86 -33 81z"/>
<path d="M530 400 c0 -5 14 -18 30 -30 17 -12 30 -27 30 -34 0 -12 100 -114
107 -108 9 7 33 1 28 -8 -7 -12 35 -23 66 -17 21 4 20 5 -6 7 l-30 2 30 9 c29
8 29 8 -7 6 -21 -2 -39 0 -40 3 -2 3 -25 16 -52 30 -31 15 -57 37 -68 58 -21
38 -16 39 39 8 51 -29 148 -66 171 -65 9 0 -13 11 -50 23 -36 13 -107 46 -157
74 -50 28 -91 47 -91 42z"/>
<path d="M710 399 c0 -5 9 -13 20 -19 11 -6 20 -20 20 -31 0 -11 -4 -17 -10
-14 -5 3 -10 2 -10 -2 0 -13 72 -43 101 -42 21 0 22 2 7 11 -14 10 -12 15 19
40 20 15 44 28 54 28 10 0 21 4 24 10 4 6 -15 8 -53 4 -45 -5 -65 -3 -83 9
-25 16 -89 20 -89 6z"/>
<path d="M209 377 c-48 -37 -52 -118 -10 -192 29 -51 155 -185 174 -185 5 0
-17 26 -50 58 -73 70 -120 134 -133 180 -8 29 -5 46 14 94 13 32 23 58 22 58
0 0 -8 -6 -17 -13z"/>
<path d="M330 283 c0 -21 167 -203 185 -203 5 1 -8 18 -31 38 -23 20 -65 67
-94 105 -51 65 -60 75 -60 60z"/>
<path d="M855 260 c-4 -6 17 -10 54 -10 34 0 61 4 61 10 0 6 -24 10 -54 10
-30 0 -58 -4 -61 -10z"/>
<path d="M833 213 c9 -2 23 -2 30 0 6 3 -1 5 -18 5 -16 0 -22 -2 -12 -5z"/>
<path d="M634 198 c-14 -22 35 -48 90 -48 54 0 96 8 96 19 0 7 -135 41 -162
41 -9 0 -20 -5 -24 -12z"/>
</g>
</svg>
