<?xml version="1.0" standalone="no"?>
<!DOCTYPE svg PUBLIC "-//W3C//DTD SVG 20010904//EN"
 "http://www.w3.org/TR/2001/REC-SVG-20010904/DTD/svg10.dtd">
<svg version="1.0" xmlns="http://www.w3.org/2000/svg"
 width="260.000000pt" height="260.000000pt" viewBox="0 0 260.000000 260.000000"
 preserveAspectRatio="xMidYMid meet">
<metadata>
Created by potrace 1.14, written by Peter Selinger 2001-2017
</metadata>
<g transform="translate(0.000000,260.000000) scale(0.100000,-0.100000)"
fill="#000000" stroke="none">
<path d="M1360 2578 c1 -7 7 -31 15 -53 8 -22 15 -41 15 -43 0 -2 -30 -3 -67
-2 -79 2 -236 -6 -308 -15 -62 -8 -180 -45 -305 -97 -126 -51 -145 -63 -210
-121 -62 -56 -114 -155 -100 -191 10 -29 -6 -69 -32 -81 -12 -6 -33 -30 -47
-55 -21 -39 -25 -61 -29 -160 -4 -126 -10 -107 64 -207 19 -27 11 -43 -22 -43
-40 0 -64 -19 -84 -63 -19 -43 -18 -56 9 -162 6 -22 18 -74 27 -116 17 -80 28
-108 39 -97 4 3 -3 41 -14 82 -12 42 -21 89 -21 104 -1 15 -7 38 -15 52 -33
58 -7 164 42 177 47 11 144 -22 162 -56 5 -9 13 -46 16 -81 4 -36 11 -82 17
-103 6 -27 6 -49 -3 -74 -12 -37 -3 -58 19 -44 20 12 65 169 65 224 0 33 4 47
13 47 8 0 14 -4 14 -9 0 -5 13 -22 29 -37 21 -20 27 -32 22 -43 -5 -9 -12 -42
-16 -74 -3 -32 -13 -74 -21 -92 -16 -40 -19 -111 -4 -120 6 -4 10 12 10 40 0
25 6 58 14 73 7 15 16 51 20 81 11 84 19 94 74 87 26 -3 57 -6 69 -6 26 0 130
-37 137 -49 3 -4 -22 -5 -54 -3 -64 5 -110 -3 -110 -18 0 -5 12 -13 28 -16 15
-4 30 -12 34 -18 5 -7 12 -5 21 8 16 22 59 14 50 -10 -12 -32 6 -60 47 -74 22
-7 45 -19 51 -27 7 -7 32 -13 59 -13 40 0 49 3 53 21 8 29 -8 51 -59 83 -24
15 -44 29 -44 31 0 11 121 -49 148 -74 27 -24 32 -34 26 -53 -4 -13 -7 -31 -6
-41 1 -26 -56 -106 -92 -128 -17 -10 -52 -22 -78 -25 -44 -6 -59 -24 -20 -24
72 0 134 44 209 146 55 76 69 79 160 35 59 -29 61 -31 65 -73 2 -24 -2 -72 -9
-108 -21 -101 -17 -118 42 -149 28 -15 70 -34 95 -44 50 -19 125 -23 115 -7
-3 6 -18 10 -33 10 -48 0 -176 54 -202 85 -10 12 -11 24 -2 53 6 20 14 51 17
67 4 17 12 44 20 60 7 17 15 38 19 48 4 14 17 17 83 16 87 -1 135 -10 115 -23
-6 -4 -17 -4 -22 -1 -20 13 -91 7 -115 -9 -38 -25 -31 -36 20 -29 44 6 45 5
45 -21 0 -19 7 -29 26 -36 45 -17 62 -12 69 20 9 39 18 44 40 20 18 -20 18
-21 -1 -35 -17 -13 -15 -14 29 -13 39 0 47 4 47 19 0 19 -49 61 -90 78 -49 19
7 10 75 -14 47 -15 69 -28 66 -37 -2 -7 -4 -39 -6 -70 -1 -48 -6 -62 -35 -95
-38 -45 -85 -73 -119 -73 -23 0 -24 -1 -9 -16 24 -24 59 -11 112 43 25 25 46
44 46 41 0 -3 -35 -71 -78 -152 -113 -209 -198 -290 -400 -382 -42 -20 -84
-40 -92 -44 -8 -5 -65 -34 -126 -65 -104 -52 -117 -56 -200 -62 -69 -4 -97 -2
-128 11 -52 22 -73 22 -55 0 18 -22 54 -35 127 -44 77 -10 154 8 232 55 30 18
73 40 94 49 l39 16 -6 -47 c-4 -27 -9 -58 -13 -70 l-6 -23 203 0 204 0 -65 37
c-62 35 -180 142 -180 162 0 6 39 31 87 57 93 51 196 147 254 239 40 62 129
250 129 272 0 9 12 42 28 74 28 59 39 66 88 53 11 -3 28 -21 39 -40 15 -28 16
-39 7 -59 -11 -23 -71 -69 -80 -61 -2 2 4 18 12 35 20 38 21 81 2 81 -9 0 -12
-7 -9 -20 3 -10 -7 -51 -22 -90 -21 -56 -37 -79 -78 -115 -28 -24 -48 -48 -44
-51 4 -4 17 3 29 15 13 12 69 67 126 122 102 98 103 99 96 136 -4 21 -14 43
-23 50 -9 6 -12 15 -7 20 5 4 11 2 13 -4 7 -19 21 -16 28 6 3 11 22 28 43 38
30 15 47 37 102 140 36 67 75 135 87 152 45 60 55 107 60 282 5 163 5 166 -19
195 -13 16 -30 49 -37 74 -7 25 -30 75 -52 112 -21 36 -39 71 -39 77 0 6 -4
11 -10 11 -5 0 -10 11 -10 24 0 14 -9 31 -19 38 -11 8 -30 35 -44 61 -14 25
-56 81 -94 123 -55 63 -81 83 -140 110 -39 19 -85 34 -102 34 -16 0 -33 5 -36
10 -10 16 -45 12 -45 -6 0 -12 -9 -9 -40 13 -22 15 -40 33 -40 39 0 5 -9 20
-20 32 -17 17 -25 20 -40 12 -34 -18 -66 -11 -94 21 -30 33 -49 34 -54 1 -5
-32 -36 -12 -62 38 -20 39 -40 53 -40 28z m-145 -818 c3 -10 2 -43 -4 -72 -12
-65 -86 -228 -103 -228 -7 0 -33 9 -57 20 -27 13 -65 20 -102 20 -35 0 -59 4
-59 11 0 6 -13 1 -29 -10 -16 -12 -35 -21 -43 -21 -16 -1 108 -59 180 -85 28
-10 52 -23 52 -27 0 -4 9 -8 20 -8 25 0 26 -16 3 -29 -24 -14 -10 -14 20 0 38
17 111 -11 115 -44 3 -22 8 -25 35 -24 18 1 42 10 55 19 27 18 53 14 77 -12
15 -16 13 -20 -25 -50 -53 -42 -40 -60 24 -32 25 12 46 25 46 31 0 6 9 15 21
21 16 9 28 8 56 -5 19 -9 45 -14 57 -11 18 4 26 -1 39 -30 23 -47 10 -68 -58
-99 -30 -14 -58 -25 -63 -25 -6 0 -36 13 -68 29 -33 16 -79 32 -104 36 -25 4
-58 16 -73 27 -15 11 -63 32 -105 48 -74 26 -153 59 -294 123 -37 16 -69 36
-72 44 -3 8 -10 12 -16 8 -5 -3 -20 1 -32 9 -13 7 -34 17 -48 21 -46 13 -50
22 -33 71 8 24 19 44 24 44 5 0 33 21 63 48 30 26 66 55 81 66 15 10 35 37 45
61 21 49 33 60 48 42 12 -14 2 -112 -17 -160 -15 -39 -14 -40 14 -21 24 15 25
15 25 -2 0 -14 9 -8 38 23 41 47 83 79 152 117 25 13 56 36 69 50 29 31 38 32
46 6z m45 -349 c0 -39 -13 -45 -41 -21 -24 20 -24 20 -5 35 31 23 46 18 46
-14z m688 -211 c14 0 17 -66 2 -75 -5 -3 -28 6 -51 20 -40 26 -40 27 -23 46
12 13 26 18 39 15 11 -3 26 -6 33 -6z m-858 -63 c0 -17 -20 -37 -37 -37 -16 0
-17 17 0 35 15 18 37 19 37 2z m671 -26 c104 -27 169 -58 169 -81 0 -55 -41
-65 -127 -31 -26 10 -93 28 -148 41 -131 29 -130 29 -119 40 12 12 113 49 135
50 9 0 50 -9 90 -19z"/>
<path d="M775 1470 c4 -6 11 -8 16 -5 14 9 11 15 -7 15 -8 0 -12 -5 -9 -10z"/>
<path d="M346 1411 c-3 -5 10 -11 29 -13 36 -4 47 5 19 16 -22 9 -42 7 -48 -3z"/>
<path d="M321 1335 c0 -16 8 -50 19 -74 11 -24 20 -53 20 -65 0 -32 11 -66 22
-66 13 0 -1 66 -25 120 -11 25 -23 61 -27 80 -8 34 -8 35 -9 5z"/>
<path d="M390 1311 c0 -6 7 -11 16 -11 13 0 15 -7 9 -42 -3 -24 -9 -79 -12
-123 -2 -44 -9 -85 -14 -92 -6 -7 -6 -13 -1 -17 19 -12 31 21 36 104 13 194
13 185 -11 188 -13 2 -23 -1 -23 -7z"/>
<path d="M2265 1059 c-4 -6 -5 -12 -2 -15 2 -3 7 2 10 11 7 17 1 20 -8 4z"/>
<path d="M432 1043 c-7 -12 -12 -31 -12 -42 0 -31 -21 -71 -38 -71 -10 0 -12
-3 -4 -12 12 -15 6 -53 -33 -193 l-27 -100 -74 -70 c-40 -38 -92 -99 -115
-135 -23 -36 -61 -85 -85 -110 l-44 -45 0 -132 0 -133 85 0 c47 0 85 2 85 4 0
2 -9 48 -21 102 -28 134 -22 179 43 311 40 81 63 114 99 145 39 33 49 48 64
103 9 36 21 65 26 65 5 0 9 -4 9 -8 0 -5 6 -16 13 -26 11 -15 13 -4 9 71 -3
69 1 108 18 175 23 92 24 142 2 101z"/>
<path d="M1028 1043 c6 -2 18 -2 25 0 6 3 1 5 -13 5 -14 0 -19 -2 -12 -5z"/>
<path d="M320 997 c0 -15 29 -57 30 -42 0 6 -3 20 -6 33 -7 24 -24 31 -24 9z"/>
<path d="M674 991 c31 -34 159 -95 225 -108 36 -7 67 -10 70 -7 10 9 -22 23
-71 29 -29 4 -85 27 -139 56 -100 54 -110 58 -85 30z"/>
<path d="M1674 859 c-3 -5 9 -9 25 -9 17 0 31 2 31 4 0 8 -51 13 -56 5z"/>
<path d="M995 763 c-25 -38 -34 -83 -15 -83 6 0 10 -6 10 -14 0 -15 40 -49 48
-41 2 2 -5 16 -17 31 -26 33 -26 45 -1 94 23 45 24 50 10 50 -5 0 -21 -17 -35
-37z"/>
<path d="M1387 694 c-4 -4 -7 -39 -6 -78 0 -53 3 -65 9 -48 5 12 14 22 21 22
7 0 9 14 4 43 -8 49 -18 70 -28 61z"/>
<path d="M1091 590 c-17 -10 4 -45 36 -59 13 -6 26 -18 29 -26 9 -21 63 -19
102 5 18 11 43 20 57 20 23 0 42 16 32 27 -4 3 -34 0 -69 -6 -61 -11 -65 -10
-119 18 -32 17 -61 26 -68 21z"/>
<path d="M772 568 c2 -7 18 -20 36 -28 19 -9 36 -27 42 -46 6 -16 29 -48 52
-70 24 -21 35 -29 25 -18 -19 23 -58 96 -54 100 2 2 52 -21 112 -51 112 -56
125 -61 125 -47 0 8 -33 24 -89 43 -19 7 -79 38 -133 71 -100 59 -123 68 -116
46z"/>
<path d="M293 533 c-23 -20 -53 -92 -53 -126 0 -43 33 -122 76 -182 53 -75
208 -229 224 -223 7 2 -16 28 -51 58 -73 64 -174 187 -200 245 -26 56 -24 114
6 181 14 32 24 59 22 61 -2 2 -13 -4 -24 -14z"/>
<path d="M1060 470 c0 -5 6 -10 13 -10 7 0 30 -9 52 -20 44 -23 99 -27 93 -8
-5 14 -99 46 -135 47 -13 1 -23 -3 -23 -9z"/>
<path d="M489 393 c5 -10 20 -29 33 -43 13 -14 47 -55 75 -91 58 -73 132 -144
141 -135 3 4 -21 32 -54 64 -33 31 -91 94 -128 140 -66 80 -87 100 -67 65z"/>
<path d="M971 367 c27 -26 98 -49 84 -27 -4 6 -9 9 -12 6 -3 -2 -26 7 -51 21
l-47 25 26 -25z"/>
<path d="M1178 383 c6 -2 18 -2 25 0 6 3 1 5 -13 5 -14 0 -19 -2 -12 -5z"/>
<path d="M1265 380 c-47 -11 -9 -22 65 -18 40 2 65 8 68 16 4 13 -80 15 -133
2z"/>
<path d="M1123 323 c9 -2 25 -2 35 0 9 3 1 5 -18 5 -19 0 -27 -2 -17 -5z"/>
<path d="M1060 312 c0 -18 55 -33 81 -23 18 7 20 10 9 14 -34 12 -90 17 -90 9z"/>
<path d="M1200 310 c0 -5 11 -10 25 -10 14 0 25 5 25 10 0 6 -11 10 -25 10
-14 0 -25 -4 -25 -10z"/>
<path d="M927 294 c-11 -11 -8 -34 5 -34 6 0 19 -6 27 -14 24 -22 134 -37 174
-24 51 17 52 25 5 36 -23 6 -61 16 -83 22 -54 16 -118 23 -128 14z"/>
</g>
</svg>
