<?xml version="1.0" standalone="no"?>
<!DOCTYPE svg PUBLIC "-//W3C//DTD SVG 20010904//EN"
 "http://www.w3.org/TR/2001/REC-SVG-20010904/DTD/svg10.dtd">
<svg version="1.0" xmlns="http://www.w3.org/2000/svg"
 width="96.000000pt" height="96.000000pt" viewBox="0 0 96.000000 96.000000"
 preserveAspectRatio="xMidYMid meet">
<metadata>
Created by potrace 1.14, written by Peter Selinger 2001-2017
</metadata>
<g transform="translate(0.000000,96.000000) scale(0.100000,-0.100000)"
fill="#000000" stroke="none">
<path d="M737 945 c-21 -7 -56 -25 -78 -39 -29 -19 -46 -25 -67 -20 -64 15
-178 12 -233 -5 l-56 -18 -48 44 c-54 49 -75 53 -105 21 -19 -20 -21 -34 -19
-118 2 -80 -1 -100 -19 -130 -56 -96 -66 -256 -21 -360 13 -30 27 -56 31 -58
4 -2 8 -8 8 -13 0 -6 17 -28 38 -51 20 -22 36 -44 35 -48 -1 -4 5 -7 15 -6 9
0 16 -5 14 -12 -1 -8 2 -11 8 -7 5 3 10 1 10 -6 0 -7 3 -10 6 -7 3 4 29 -4 57
-17 49 -21 146 -42 175 -36 8 1 20 -3 28 -10 12 -10 15 -10 12 0 -3 14 16 20
74 24 20 1 34 5 32 8 -5 9 66 40 77 33 5 -3 8 0 7 6 -2 7 6 17 16 23 24 15 70
65 99 109 46 68 62 127 62 228 0 82 -4 105 -29 165 -24 56 -30 89 -34 165 -6
133 -24 159 -95 135z"/>
</g>
</svg>
